<svg width="63" height="63" viewBox="0 0 63 63" fill="none" xmlns="http://www.w3.org/2000/svg">
<path d="M20.475 5.25H42.525C50.925 5.25 57.75 12.075 57.75 20.475V42.525C57.75 46.5629 56.1459 50.4355 53.2907 53.2907C50.4355 56.1459 46.5629 57.75 42.525 57.75H20.475C12.075 57.75 5.25 50.925 5.25 42.525V20.475C5.25 16.4371 6.85406 12.5645 9.7093 9.7093C12.5645 6.85406 16.4371 5.25 20.475 5.25ZM19.95 10.5C17.4437 10.5 15.0401 11.4956 13.2678 13.2678C11.4956 15.0401 10.5 17.4437 10.5 19.95V43.05C10.5 48.2737 14.7262 52.5 19.95 52.5H43.05C45.5563 52.5 47.9599 51.5044 49.7322 49.7322C51.5044 47.9599 52.5 45.5563 52.5 43.05V19.95C52.5 14.7262 48.2737 10.5 43.05 10.5H19.95ZM45.2812 14.4375C46.1515 14.4375 46.9861 14.7832 47.6014 15.3986C48.2168 16.0139 48.5625 16.8485 48.5625 17.7188C48.5625 18.589 48.2168 19.4236 47.6014 20.0389C46.9861 20.6543 46.1515 21 45.2812 21C44.411 21 43.5764 20.6543 42.9611 20.0389C42.3457 19.4236 42 18.589 42 17.7188C42 16.8485 42.3457 16.0139 42.9611 15.3986C43.5764 14.7832 44.411 14.4375 45.2812 14.4375ZM31.5 18.375C34.981 18.375 38.3194 19.7578 40.7808 22.2192C43.2422 24.6806 44.625 28.019 44.625 31.5C44.625 34.981 43.2422 38.3194 40.7808 40.7808C38.3194 43.2422 34.981 44.625 31.5 44.625C28.019 44.625 24.6806 43.2422 22.2192 40.7808C19.7578 38.3194 18.375 34.981 18.375 31.5C18.375 28.019 19.7578 24.6806 22.2192 22.2192C24.6806 19.7578 28.019 18.375 31.5 18.375ZM31.5 23.625C29.4114 23.625 27.4084 24.4547 25.9315 25.9315C24.4547 27.4084 23.625 29.4114 23.625 31.5C23.625 33.5886 24.4547 35.5916 25.9315 37.0685C27.4084 38.5453 29.4114 39.375 31.5 39.375C33.5886 39.375 35.5916 38.5453 37.0685 37.0685C38.5453 35.5916 39.375 33.5886 39.375 31.5C39.375 29.4114 38.5453 27.4084 37.0685 25.9315C35.5916 24.4547 33.5886 23.625 31.5 23.625Z" fill="white"/>
</svg>
